<svg width="36" height="36" viewBox="0 0 36 36" fill="none" xmlns="http://www.w3.org/2000/svg">
<path fill-rule="evenodd" clip-rule="evenodd" d="M3.45312 32.5444C3.45312 31.7411 4.10435 31.0898 4.90767 31.0898H31.0895C31.8928 31.0898 32.544 31.7411 32.544 32.5444C32.544 33.3477 31.8928 33.9989 31.0895 33.9989H4.90767C4.10435 33.9989 3.45312 33.3477 3.45312 32.5444Z" fill="#2DD7AE"/>
<path fill-rule="evenodd" clip-rule="evenodd" d="M9.2729 15.0898C10.0762 15.0898 10.7275 15.7411 10.7275 16.5444V26.7262C10.7275 27.5295 10.0762 28.1808 9.2729 28.1808C8.46958 28.1808 7.81836 27.5295 7.81836 26.7262V16.5444C7.81836 15.7411 8.46958 15.0898 9.2729 15.0898Z" fill="#2DD7AE"/>
<path fill-rule="evenodd" clip-rule="evenodd" d="M15.0913 15.0898C15.8946 15.0898 16.5458 15.7411 16.5458 16.5444V26.7262C16.5458 27.5295 15.8946 28.1808 15.0913 28.1808C14.2879 28.1808 13.6367 27.5295 13.6367 26.7262V16.5444C13.6367 15.7411 14.2879 15.0898 15.0913 15.0898Z" fill="#2DD7AE"/>
<path fill-rule="evenodd" clip-rule="evenodd" d="M20.9077 15.0898C21.711 15.0898 22.3622 15.7411 22.3622 16.5444V26.7262C22.3622 27.5295 21.711 28.1808 20.9077 28.1808C20.1043 28.1808 19.4531 27.5295 19.4531 26.7262V16.5444C19.4531 15.7411 20.1043 15.0898 20.9077 15.0898Z" fill="#2DD7AE"/>
<path fill-rule="evenodd" clip-rule="evenodd" d="M26.726 15.0898C27.5294 15.0898 28.1806 15.7411 28.1806 16.5444V26.7262C28.1806 27.5295 27.5294 28.1808 26.726 28.1808C25.9227 28.1808 25.2715 27.5295 25.2715 26.7262V16.5444C25.2715 15.7411 25.9227 15.0898 26.726 15.0898Z" fill="#2DD7AE"/>
<path fill-rule="evenodd" clip-rule="evenodd" d="M17.2283 2.22109C17.7 1.9263 18.2985 1.9263 18.7701 2.22109L30.4065 9.49382C30.9568 9.83773 31.2127 10.5045 31.0338 11.1283C30.8549 11.752 30.2845 12.1818 29.6356 12.1818H6.36287C5.71398 12.1818 5.14358 11.752 4.96469 11.1283C4.7858 10.5045 5.04171 9.83773 5.59196 9.49382L17.2283 2.22109ZM11.4346 9.27273H24.5639L17.9992 5.16981L11.4346 9.27273Z" fill="white"/>
</svg>
