<svg width="36" height="36" viewBox="0 0 36 36" fill="none" xmlns="http://www.w3.org/2000/svg">
<path fill-rule="evenodd" clip-rule="evenodd" d="M3.45455 9.27344C2.65122 9.27344 2 9.92466 2 10.728V18.0007C2 18.804 2.65122 19.4553 3.45455 19.4553H4.9082V32.5469C4.9082 33.3502 5.55943 34.0014 6.36275 34.0014H29.6355C30.4388 34.0014 31.09 33.3502 31.09 32.5469V19.4553H32.5455C33.3488 19.4553 34 18.804 34 18.0007V10.728C34 9.92466 33.3488 9.27344 32.5455 9.27344H3.45455ZM28.1809 19.4553H7.81729V31.0923H28.1809V19.4553ZM4.90909 16.5462V12.1825H31.0909V16.5462H4.90909Z" fill="#2DD7AE"/>
<path fill-rule="evenodd" clip-rule="evenodd" d="M11.4542 4.90909C10.8755 4.90909 10.3206 5.13896 9.91141 5.54813C9.50224 5.9573 9.27237 6.51225 9.27237 7.09091C9.27237 7.66956 9.50224 8.22452 9.91141 8.63369C10.3206 9.04286 10.8755 9.27273 11.4542 9.27273H16.0419C15.8643 8.80817 15.6395 8.29733 15.3615 7.79188C14.4467 6.1285 13.1908 4.90909 11.4542 4.90909ZM17.9996 6.55463C17.9704 6.4998 17.9407 6.44489 17.9105 6.38994C16.8254 4.41695 14.8085 2 11.4542 2C10.104 2 8.8091 2.53636 7.85437 3.49109C6.89964 4.44582 6.36328 5.74072 6.36328 7.09091C6.36328 8.4411 6.89964 9.73599 7.85437 10.6907C8.8091 11.6455 10.104 12.1818 11.4542 12.1818H16.5449V32.5462C16.5449 33.3495 17.1961 34.0007 17.9995 34.0007C18.8028 34.0007 19.454 33.3495 19.454 32.5462V12.1818H24.5449C25.8951 12.1818 27.19 11.6455 28.1448 10.6907C29.0995 9.73599 29.6358 8.4411 29.6358 7.09091C29.6358 5.74072 29.0995 4.44582 28.1448 3.49109C27.19 2.53636 25.8951 2 24.5449 2C21.1906 2 19.1738 4.41695 18.0886 6.38994C18.0584 6.44489 18.0287 6.4998 17.9996 6.55463ZM24.5449 9.27273H19.9573C20.1348 8.80817 20.3596 8.29733 20.6376 7.79188C21.5525 6.1285 22.8084 4.90909 24.5449 4.90909C25.1236 4.90909 25.6785 5.13896 26.0877 5.54813C26.4969 5.9573 26.7268 6.51225 26.7268 7.09091C26.7268 7.66956 26.4969 8.22452 26.0877 8.63369C25.6785 9.04286 25.1236 9.27273 24.5449 9.27273Z" fill="white"/>
</svg>
