<svg width="37" height="36" viewBox="0 0 37 36" fill="none" xmlns="http://www.w3.org/2000/svg">
<path fill-rule="evenodd" clip-rule="evenodd" d="M33.3483 19.8792C33.9164 20.4473 33.9164 21.3684 33.3483 21.9365L27.5295 27.7553C26.9614 28.3234 26.0403 28.3234 25.4722 27.7553L22.5628 24.8459C21.9947 24.2778 21.9947 23.3567 22.5628 22.7886C23.1309 22.2205 24.052 22.2205 24.6201 22.7886L26.5008 24.6694L31.291 19.8792C31.8591 19.3111 32.7802 19.3111 33.3483 19.8792Z" fill="white"/>
<path fill-rule="evenodd" clip-rule="evenodd" d="M15.5946 2.58291C16.2573 2.20103 17.0087 2 17.7736 2C18.5385 2 19.2899 2.20103 19.9526 2.58291L19.9557 2.58468L30.1386 8.40349C30.8014 8.78615 31.3519 9.33637 31.7349 9.99895C32.1179 10.6615 32.3199 11.4132 32.3207 12.1785V15.0894C32.3207 15.8928 31.6694 16.5441 30.866 16.5441C30.0626 16.5441 29.4113 15.8928 29.4113 15.0894V12.9949L19.2286 18.8403V30.4785L21.4174 29.2309C22.1154 28.8331 23.0037 29.0764 23.4016 29.7743C23.7994 30.4723 23.5561 31.3607 22.8581 31.7585L19.9557 33.4129L19.9519 33.4151C19.3182 33.7801 18.6034 33.9798 17.8734 33.9964C17.8405 33.9987 17.8073 33.9998 17.7739 33.9998C17.7405 33.9998 17.7074 33.9987 17.6747 33.9965C16.944 33.9799 16.2287 33.7801 15.5946 33.4147L15.5916 33.4129L5.41424 27.5973L5.40862 27.5941C4.74585 27.2114 4.19535 26.6612 3.81236 25.9986C3.42937 25.3361 3.22735 24.5844 3.22656 23.8191V12.1785C3.22735 11.4132 3.42937 10.6615 3.81236 9.99895C4.19535 9.33637 4.74585 8.78616 5.40862 8.40351L5.41423 8.40027L10.4842 5.50314C10.544 5.4628 10.6066 5.42714 10.6712 5.39631L15.5946 2.58291ZM16.3192 30.4778V18.8403L6.13597 12.9946V23.8168C6.13635 24.0716 6.20368 24.322 6.33124 24.5426C6.45845 24.7627 6.64111 24.9456 6.86098 25.0731L6.86333 25.0744L16.3192 30.4778ZM7.6191 10.4913L17.7739 16.3207L21.4237 14.2255L11.2993 8.38834L7.6191 10.4913ZM24.3425 12.5499L27.9284 10.4914L18.501 5.10432C18.2798 4.97664 18.029 4.90941 17.7736 4.90941C17.5183 4.90941 17.2674 4.97663 17.0463 5.10431L17.0407 5.10755L14.2247 6.71665L24.3425 12.5499Z" fill="#2DD7AE"/>
</svg>
