<svg width="37" height="36" viewBox="0 0 37 36" fill="none" xmlns="http://www.w3.org/2000/svg">
<path fill-rule="evenodd" clip-rule="evenodd" d="M3.90589 4.20667C4.80606 3.30649 6.02696 2.80078 7.3 2.80078H18.5C19.3837 2.80078 20.1 3.51713 20.1 4.40078C20.1 5.28444 19.3837 6.00078 18.5 6.00078H7.3C6.87565 6.00078 6.46869 6.16935 6.16863 6.46941C5.86857 6.76947 5.7 7.17643 5.7 7.60078V23.6008C5.7 24.4844 4.98366 25.2008 4.1 25.2008C3.21634 25.2008 2.5 24.4844 2.5 23.6008V7.60078C2.5 6.32774 3.00571 5.10684 3.90589 4.20667ZM32.9 18.8008C33.7837 18.8008 34.5 19.5171 34.5 20.4008V28.4008C34.5 29.6738 33.9943 30.8947 33.0941 31.7949C32.1939 32.6951 30.973 33.2008 29.7 33.2008H24.9C24.0163 33.2008 23.3 32.4844 23.3 31.6008C23.3 30.7171 24.0163 30.0008 24.9 30.0008H29.7C30.1243 30.0008 30.5313 29.8322 30.8314 29.5322C31.1314 29.2321 31.3 28.8251 31.3 28.4008V20.4008C31.3 19.5171 32.0163 18.8008 32.9 18.8008Z" fill="#2DD7AE"/>
<path fill-rule="evenodd" clip-rule="evenodd" d="M34.3774 3.78833C34.3011 3.6039 34.1888 3.43085 34.0406 3.2799L34.0197 3.25901C33.731 2.97559 33.3353 2.80078 32.8988 2.80078H24.8988C24.0152 2.80078 23.2988 3.51713 23.2988 4.40078C23.2988 5.28444 24.0152 6.00078 24.8988 6.00078H29.0361L23.7675 11.2694C23.1426 11.8942 23.1426 12.9073 23.7675 13.5322C24.3923 14.157 25.4054 14.157 26.0302 13.5322L31.2988 8.26352V12.4008C31.2988 13.2844 32.0152 14.0008 32.8988 14.0008C33.7825 14.0008 34.4988 13.2844 34.4988 12.4008V4.40078C34.4988 4.18384 34.4557 3.97698 34.3774 3.78833ZM14.6357 25.2L9.36707 30.4686C8.74223 31.0935 8.74223 32.1065 9.36707 32.7314C9.99191 33.3562 11.005 33.3562 11.6298 32.7314L16.8984 27.4627V31.6C16.8984 32.4837 17.6148 33.2 18.4984 33.2C19.3821 33.2 20.0984 32.4837 20.0984 31.6V23.6009V23.6C20.0984 23.5984 20.0984 23.5968 20.0984 23.5952C20.0972 23.1873 19.941 22.7798 19.6298 22.4686C19.4764 22.3152 19.2996 22.1995 19.1109 22.1214C18.9222 22.0432 18.7154 22 18.4984 22H10.4984C9.61478 22 8.89844 22.7163 8.89844 23.6C8.89844 24.4837 9.61478 25.2 10.4984 25.2H14.6357Z" fill="white"/>
</svg>
