<svg xmlns="http://www.w3.org/2000/svg" xmlns:xlink="http://www.w3.org/1999/xlink" xmlns:svgjs="http://svgjs.dev/svgjs" version="1.1" width="128" height="128" viewBox="0 0 128 128" transform="matrix(1, 0, 0, 1, 0, 0)"><g transform="matrix(0.8046875,0,0,0.8046875,12.760752631578946,17.977974853880923)"><svg xmlns="http://www.w3.org/2000/svg" xmlns:xlink="http://www.w3.org/1999/xlink" viewBox="0 0 95 86" data-background-color="#03a9f4" preserveAspectRatio="xMidYMid meet" height="115" width="128"><g id="tight-bounds" transform="matrix(1,0,0,1,-0.24049999999999727,-0.23001664765902774)"><svg viewBox="0 0 95.481 86.46003329531806" height="86.46003329531806" width="95.481"><g><svg viewBox="0 0 95.481 86.46003329531806" height="86.46003329531806" width="95.481"><g><svg viewBox="0 0 95.481 86.46003329531806" height="86.46003329531806" width="95.481"><g id="textblocktransform"><svg viewBox="0 0 95.481 86.46003329531806" height="86.46003329531806" width="95.481" id="textblock"><g><svg viewBox="0 0 95.481 86.46003329531806" height="86.46003329531806" width="95.481"><g><svg viewBox="0 0 95.481 86.46003329531806" height="86.46003329531806" width="95.481"><g><svg xmlns="http://www.w3.org/2000/svg" xmlns:xlink="http://www.w3.org/1999/xlink" version="1.1" x="0" y="0" viewBox="18.299632795160413 13.977639400946734 69.42723524388077 62.86780690176905" enable-background="new 0 0 100 100" xml:space="preserve" height="86.46003329531806" width="95.481" class="icon-icon-0" data-fill-palette-color="accent" id="icon-0"><path d="M87.703 75.283c-0.5-0.833-3.25 1.833-5.167-3.584-1.145-3.234-4.155-4.354-6.399-4.734 0.514-0.813 0.995-1.659 1.438-2.537 7.432-14.752 1.496-32.737-13.257-40.168-7.352-3.704-15.506-4.086-22.757-1.713-4.634-2.253-2.488-10.12-5.286-8.298s-6.299 10.585-6.088 15.108c-2.399 2.294-4.457 5.025-6.036 8.159-3.805 7.553-2.453 13.001 0.735 16.487-3.645 3.237-8.307 8.154-5.946 10.391 1.552 1.47 5.201 1.54 9.299-0.58 3.324-1.72 10.794-7.421 11.425-7.827 0.634-0.408 0.826-0.035 0.285 0.411-0.493 0.406-9.464 6.626-11.12 7.751-0.165 0.112-0.047 0.258-0.047 0.258 0.141 0.336 0.375 0.438 1.262 0.211 1.635-0.418 9.484-4.563 12.953-6.567 1.135-0.532 2.373-1.398 3.687-2.383 4.063 1.844 16.046 2.698 15.319 0.883-0.757-1.891-3.943-3.48-4.095-6.887 1.089-0.039 2.177 0.163 3.252 0.705 6.333 3.19 10.071 9.459 10.353 16.072-1.413-0.021-7.087 0.197-8.761 4.927-1.917 5.417-4.667 2.751-5.167 3.584s6.957 3.696 12.854-1.36c0.246-0.212 0.469-0.416 0.68-0.617 0.513-0.471 1.013-0.958 1.494-1.468 0.475 0.716 1.189 1.519 2.238 2.418C80.746 78.979 88.203 76.116 87.703 75.283zM30.969 49.625c-1.053 0-1.906-0.854-1.906-1.906s0.854-1.906 1.906-1.906 1.906 0.854 1.906 1.906S32.021 49.625 30.969 49.625zM31.896 47.812c0 0.564-0.457 1.021-1.021 1.021-0.564 0-1.021-0.457-1.021-1.021 0-0.563 0.457-1.021 1.021-1.021C31.438 46.792 31.896 47.249 31.896 47.812z" fill="#5d1c6b" data-fill-palette-color="accent"/></svg></g></svg></g></svg></g></svg></g></svg></g></svg></g><defs fill="#03a9f4"/></svg><rect width="95.481" height="86.46003329531806" fill="none" stroke="none" visibility="hidden"/></g></svg></g></svg>