<svg width="37" height="36" viewBox="0 0 37 36" fill="none" xmlns="http://www.w3.org/2000/svg">
<path d="M4.10496 34C3.68896 34 3.28363 33.84 2.9743 33.5307C2.54763 33.104 2.3983 32.464 2.5903 31.888L5.42763 23.376C4.55296 21.4347 4.10496 19.312 4.10496 17.1893C4.10496 14.3733 4.8943 11.6107 6.37696 9.2C7.85963 6.78933 9.9823 4.86933 12.5103 3.61067C14.5903 2.55467 16.937 2 19.273 2H20.105C23.9236 2.21333 27.4436 3.78133 30.0783 6.42667C32.7236 9.072 34.2916 12.5813 34.4943 16.3147V17.2C34.4943 19.5573 33.9396 21.904 32.8836 24.0053C31.625 26.5227 29.6836 28.6453 27.2836 30.128C24.8836 31.6107 22.121 32.4 19.2943 32.4H19.2516C17.1396 32.4 15.0383 31.9413 13.1076 31.0773L4.59563 33.9147C4.42496 33.968 4.2543 34 4.0943 34H4.10496ZM19.273 5.2C17.4276 5.2 15.5823 5.63733 13.9396 6.46933C11.9343 7.472 10.2596 8.99733 9.0863 10.896C7.91296 12.7947 7.2943 14.9707 7.2943 17.2C7.2943 19.056 7.73163 20.9013 8.56363 22.5547C8.75563 22.9387 8.78763 23.376 8.64896 23.7813L6.6223 29.8613L12.7023 27.8347C13.1076 27.696 13.545 27.728 13.929 27.92C15.5823 28.752 17.4276 29.168 19.2836 29.1893C21.5236 29.1893 23.6996 28.5707 25.5983 27.3973C27.497 26.224 29.0223 24.5493 30.025 22.5547C30.8676 20.9013 31.305 19.0453 31.2943 17.1893V16.3893C31.1343 13.5307 29.897 10.7573 27.8063 8.67733C25.7156 6.58667 22.953 5.34933 19.9983 5.18933H19.2836C19.2836 5.18933 19.2623 5.18933 19.2516 5.18933L19.273 5.2Z" fill="#2DD7AE"/>
<path d="M19.3207 24.6625C18.4354 24.6625 17.7207 23.9478 17.7207 23.0625V16.6625C17.7207 15.7772 18.4354 15.0625 19.3207 15.0625C20.206 15.0625 20.9207 15.7772 20.9207 16.6625V23.0625C20.9207 23.9478 20.206 24.6625 19.3207 24.6625Z" fill="white"/>
<path d="M19.3314 12.9305C18.446 12.9305 17.7207 12.2158 17.7207 11.3305C17.7207 10.4451 18.4247 9.73047 19.31 9.73047H19.3207C20.206 9.73047 20.9207 10.4451 20.9207 11.3305C20.9207 12.2158 20.206 12.9305 19.3207 12.9305H19.3314Z" fill="white"/>
</svg>
