<svg width="36" height="36" viewBox="0 0 36 36" fill="none" xmlns="http://www.w3.org/2000/svg">
<path fill-rule="evenodd" clip-rule="evenodd" d="M13.2 6.80156C10.9909 6.80156 9.2 8.59242 9.2 10.8016C9.2 13.0107 10.9909 14.8016 13.2 14.8016C15.4091 14.8016 17.2 13.0107 17.2 10.8016C17.2 8.59242 15.4091 6.80156 13.2 6.80156ZM6 10.8016C6 6.82511 9.22355 3.60156 13.2 3.60156C17.1764 3.60156 20.4 6.82511 20.4 10.8016C20.4 14.778 17.1764 18.0016 13.2 18.0016C9.22355 18.0016 6 14.778 6 10.8016ZM9.62837 23.3918L9.34342 23.4373C6.95641 23.8183 5.2 25.8772 5.2 28.2944C5.2 28.7954 5.60614 29.2016 6.10715 29.2016H20.2929C20.7939 29.2016 21.2 28.7954 21.2 28.2944C21.2 25.8772 19.4436 23.8183 17.0566 23.4373L16.7716 23.3918C14.4055 23.0142 11.9945 23.0142 9.62837 23.3918ZM9.12405 20.2318C11.8243 19.8009 14.5757 19.8009 17.2759 20.2318L17.5609 20.2773C21.5009 20.9061 24.4 24.3046 24.4 28.2944C24.4 30.5627 22.5612 32.4016 20.2929 32.4016H6.10715C3.83883 32.4016 2 30.5627 2 28.2944C2 24.3046 4.89911 20.9061 8.83909 20.2773L9.12405 20.2318Z" fill="white"/>
<path fill-rule="evenodd" clip-rule="evenodd" d="M21.1992 5.20156C21.1992 4.31791 21.9156 3.60156 22.7992 3.60156C26.7757 3.60156 29.9992 6.82511 29.9992 10.8016C29.9992 14.778 26.7757 18.0016 22.7992 18.0016C21.9156 18.0016 21.1992 17.2852 21.1992 16.4016C21.1992 15.5179 21.9156 14.8016 22.7992 14.8016C25.0084 14.8016 26.7992 13.0107 26.7992 10.8016C26.7992 8.59242 25.0084 6.80156 22.7992 6.80156C21.9156 6.80156 21.1992 6.08522 21.1992 5.20156ZM25.043 21.5597C25.1823 20.687 26.0026 20.0925 26.8752 20.2318L27.1601 20.2773C31.1001 20.9061 33.9992 24.3046 33.9992 28.2944C33.9992 30.5627 32.1604 32.4016 29.8921 32.4016H27.6897C26.806 32.4016 26.0897 31.6852 26.0897 30.8016C26.0897 29.9179 26.806 29.2016 27.6897 29.2016H29.8921C30.3931 29.2016 30.7992 28.7954 30.7992 28.2944C30.7992 25.8772 29.0428 23.8183 26.6558 23.4373L26.3708 23.3918C25.4982 23.2526 24.9037 22.4323 25.043 21.5597Z" fill="#2DD7AE"/>
</svg>
